<svg xmlns="http://www.w3.org/2000/svg" xml:space="preserve" style="fill-rule:evenodd;clip-rule:evenodd;stroke-linejoin:round;stroke-miterlimit:2" viewBox="0 0 683 264">
  <path d="m30.7 72.6-.6-.4C11.1 60.1.5 41.7.5 20.4v-1.1h19.3v2.1H2.6C3 41.3 12.9 58.6 30.7 70.1c17.8-11.6 27.7-28.8 28.1-48.7H41.2v-2.1h19.7v1.1c0 21.3-10.5 39.7-29.6 51.9l-.6.3Z" style="fill-rule:nonzero" transform="translate(-1.813) scale(3.62616)"/>
  <path d="M215.394 72.523v1.45c-1.45-.725-3.264 0-5.077 0-6.89 0-11.24 6.165-11.24 12.33 0 1.45.362 3.263.724 4.714-1.45-.726-2.9-1.088-4.714-1.088-6.164 0-11.24 5.076-11.24 11.24 0 2.177.725 3.99 1.45 5.803-1.813-1.088-3.626-1.813-5.802-1.813-7.252 0-11.241 5.801-11.241 12.691 0 2.176 0 2.539 1.088 3.989-1.813-1.088-3.627-1.45-5.802-1.45-6.165 0-11.241 6.527-11.241 12.691 0 1.813.362 2.538 1.088 3.989-1.45-.725-2.901-.725-4.714-.725-6.165 0-11.242 5.801-11.242 11.966 0 6.164 5.077 11.241 11.242 11.241 1.813 0 3.263-.363 5.076-1.088-.725 1.45-1.088 2.901-1.088 4.714 0 6.165 5.077 11.241 11.241 11.241 1.813 0 3.264 0 5.077-.725-1.45 1.813-.725 3.626-.725 5.44 0 6.164 6.164 10.515 12.329 10.515.725 0 1.45-.725 2.538-.725-9.065 13.78-20.67 27.559-32.635 38.8 2.175-2.176 5.439-5.44 5.439-8.703 0-6.527-5.077-11.604-11.604-11.604-3.263 0-5.076 0-7.252 2.176a11.68 11.68 0 0 0 2.538-7.252c0-6.165-5.076-11.241-11.241-11.241-2.9 0-5.077 1.087-7.252 2.538a12.522 12.522 0 0 0 1.813-6.527c0-5.802-2.176-11.241-12.33-11.241-5.801 0-10.152 5.439-10.152 11.24 0 2.54.725 4.715 1.813 6.528a11.68 11.68 0 0 0-7.253-2.538c-6.164 0-11.24 5.076-11.24 11.24 0 2.902 1.087 5.44 2.538 7.253-2.176-1.813-5.077-3.263-7.978-3.263-6.527 0-11.604 5.076-11.604 11.603 0 3.264 1.813 7.615 3.99 9.79-11.967-11.24-22.483-23.932-31.548-37.711.725 0 2.175.362 3.263.362 6.165 0 11.241-5.076 11.241-11.24 0-2.176-.725-3.99-1.45-5.803 1.45.726 3.263 1.45 5.439 1.45 6.164 0 11.241-5.076 11.241-11.24 0-1.813-.363-3.626-1.45-5.077 1.45.725 3.263 1.088 4.714 1.088 6.164 0 11.24-5.077 11.24-11.241 0-6.165-5.076-11.241-11.24-11.241-1.814 0-3.627.362-5.077 1.088.725-1.45 1.088-3.264 1.088-5.077 0-6.164-5.077-11.241-11.241-11.241-2.176 0-4.352.725-6.165 1.813 1.088-1.813 1.45-3.626 1.45-5.44 0-6.164-5.076-11.24-11.24-11.24-2.176 0-4.352.725-5.802 1.813 1.088-1.813 1.45-3.626 1.45-5.802 0-6.165-5.076-11.241-11.24-11.241-1.814 0-3.627.725-5.44 1.45.362-2.538.725-3.988.725-6.164 0-6.165-5.077-13.054-11.241-13.054-1.813 0-3.626-.726-5.077 0v-1.45H69.26c-1.45 3.263-2.901 4.713-2.901 7.252 0 6.164 5.076 11.24 11.24 11.24 2.176 0 4.352-.725 6.165-1.812-1.088 1.813-1.813 3.626-1.813 6.164 0 6.164 5.077 11.241 11.241 11.241 2.539 0 4.714-.725 6.527-2.176-1.087 1.813-1.813 3.99-1.813 6.165 0 6.164 5.077 11.241 11.241 11.241 6.165 0 11.241-5.077 11.241-11.241 0-2.176-.725-4.352-1.813-6.165 1.813 1.088 3.627 1.45 5.802 1.45 6.165 0 11.241-5.076 11.241-11.24 0-1.813-.362-3.264-1.087-4.714 1.813 1.088 2.9 1.088 5.439 1.088 6.164 0 10.878-5.077 10.878-11.241 0-2.901-1.45-3.99-2.9-7.253h67.446Zm-56.206 25.383c.726 1.088 1.088.726 1.45-.362.363-1.088.726-1.813 1.089-2.901.362-1.088 0-1.813-.726-1.813h-2.175c-1.45 0-1.45.362-1.088 1.813.363 1.088 1.088 2.175 1.45 3.263Zm-87.027.726c.725 1.087 1.087.725 1.45-.363s.725-1.813 1.088-2.901c.362-1.088 0-1.813-.725-1.813h-2.176c-1.45 0-1.45.363-1.088 1.813.363 1.088 1.088 2.176 1.45 3.264Zm37.349 63.095c1.088 0 1.813 0 2.538-.363.726-.362 1.45-.362.363-2.538-.725-2.176-1.45-4.352-1.45-6.165v-2.538c0-1.45 1.087-1.45 1.45 0 0 1.45 1.088 5.44 2.176 7.615 1.087 2.176 2.9 1.088 3.263.725.363-.362 1.813-1.45 2.176-2.176.362-.725.725-1.45-.363-2.538-1.45-1.45-3.263-3.989-3.989-5.802-.725-1.813 0-2.538 1.088-.725 1.088 1.813 2.901 3.626 4.352 4.714.725.725 1.088.725 1.813 0 .725-.725 1.813-2.538 1.45-4.714-.362-1.813-1.088-2.176-2.175-2.176-1.088 0-3.264 0-5.077-1.45-2.176-1.813-3.264-3.989-4.351-9.065-.363-2.539-1.814-3.264-2.901-3.264-1.45 0-2.539.725-2.901 3.264-1.088 5.076-2.901 7.614-5.077 9.428-1.45 1.45-3.626 1.45-4.351 1.45-.726 0-1.45 0-1.813 1.813s.725 3.626 1.45 4.714c.725.725 1.088.725 1.813 0 1.45-1.088 2.901-2.9 4.352-4.714 1.45-1.813 2.175-1.088 1.087.725-.725 1.813-2.9 4.352-3.988 5.802-1.088 1.088-.726 1.45-.363 2.538.363.726 1.813 1.814 2.176 2.176.362.363 2.175 1.45 3.263-.725 1.088-2.176 1.813-6.165 2.176-7.615 0-1.45 1.088-1.45 1.45 0v2.538c0 1.813-.362 3.99-1.45 6.165-.725 2.176 0 2.176.363 2.538-.363.363.362.363 1.45.363Zm43.151-42.064c1.088 0 1.813 0 2.539-.362.725-.363 1.45-.363.362-2.539-.725-2.175-1.45-4.351-1.45-6.164v-2.538c0-1.45 1.088-1.45 1.45 0 0 1.45 1.088 5.439 2.176 7.615 1.088 2.175 2.9 1.087 3.263.725.363-.363 1.814-1.45 2.176-2.176.363-.725.725-1.45-.362-2.538-1.45-1.45-3.264-3.989-3.99-5.802-.724-1.813 0-2.538 1.089-.725 1.087 1.813 2.9 3.626 4.351 4.714.725.725 1.088.725 1.813 0 .725-.726 1.813-2.539 1.45-4.714-.362-1.813-1.087-2.176-2.175-2.176-1.088 0-3.264 0-5.077-1.45-2.175-1.814-3.263-3.99-4.351-9.066-.363-2.538-1.813-3.263-2.901-3.263-1.45 0-2.538.725-2.901 3.263-1.088 5.077-2.9 7.615-5.077 9.428-1.45 1.45-3.626 1.45-4.351 1.45-.725 0-1.45 0-1.813 1.814-.363 1.813.725 3.626 1.45 4.714.726.725 1.088.725 1.813 0 1.45-1.088 2.901-2.901 4.352-4.714 1.45-1.813 2.176-1.088 1.088.725-.726 1.813-2.901 4.351-3.99 5.802-1.087 1.088-.724 1.813-.362 2.538.363.725 1.813 1.813 2.176 2.176.363.362 2.176 1.45 3.264-.725 1.087-2.176 1.813-6.165 2.175-7.615 0-1.45 1.088-1.45 1.45 0v2.538c0 1.813-.362 3.989-1.45 6.164-.725 2.176 0 2.176.363 2.539 0 0 .362.362 1.45.362Zm-50.04 20.67c.725-1.088 1.087-1.814 1.45-3.264.362-1.45.362-1.813-1.088-1.813h-2.176c-.725 0-1.088.725-.725 1.813.363 1.088.725 1.813 1.088 2.9.362.726.725 1.089 1.45.363Zm13.416 0c.725.725.725.362 1.45-.363.363-1.088.726-1.813 1.088-2.901.363-1.088 0-1.813-.725-1.813h-2.176c-1.45 0-1.45.362-1.087 1.813.362 1.45 1.087 2.176 1.45 3.263Zm29.735-42.427c.725-1.088 1.087-2.175 1.45-3.263.363-1.45.363-1.813-1.088-1.813h-2.175c-.726 0-1.088.725-.726 1.813.363 1.088.726 1.813 1.088 2.9.725 1.089.725 1.451 1.45.363ZM60.557 184.21c.725-1.088 1.088-2.176 1.45-3.264.363-1.45.363-1.813-1.088-1.813h-2.175c-.725 0-1.088.726-.725 1.813.362 1.088.725 1.813 1.087 2.901.363.726.363 1.45 1.45.363Zm13.054 0c.725 1.088 1.088.363 1.45-.363.363-1.088.726-1.813 1.088-2.9.363-1.088 0-1.814-.725-1.814h-2.176c-1.45 0-1.45.363-1.087 1.813.362 1.088 1.087 2.176 1.45 3.264Zm-7.615-63.82c1.088 0 1.813 0 2.538-.363.726-.363 1.45-.363.363-2.538-.725-2.176-1.45-4.352-1.45-6.165v-2.538c0-1.45 1.087-1.45 1.45 0 0 1.813 1.088 5.439 2.176 7.615 1.088 2.175 2.9 1.088 3.263.725.363-.363 1.813-1.45 2.176-2.176.363-.725.725-1.45-.363-2.538-1.45-1.45-3.263-3.989-3.988-5.802-.726-1.813 0-2.538 1.087-.725 1.088 1.813 2.901 3.626 4.352 4.714.725.725 1.088.725 1.813 0 .725-.725 1.813-2.538 1.45-4.714-.362-1.813-1.088-2.176-2.175-2.176-1.088 0-3.264 0-5.077-1.45-2.176-1.813-3.264-3.99-4.351-9.066-.363-2.538-1.813-3.263-2.901-3.263-1.45 0-2.539.725-2.901 3.263-1.088 5.077-2.901 7.615-5.077 9.428-1.45 1.45-3.626 1.45-4.351 1.45-.725 0-1.45 0-1.813 1.814-.363 1.813.725 3.626 1.45 4.714.725.725 1.088.725 1.813 0 1.45-1.088 2.901-2.901 4.352-4.714 1.45-1.813 2.175-1.088 1.087.725-.725 1.813-2.9 4.351-3.988 5.802-1.088 1.088-.726 1.45-.363 2.538.363.726 1.813 1.813 2.176 2.176.362.363 2.175 1.45 3.263-.725 1.088-2.176 1.813-6.165 2.176-7.615 0-1.45 1.088-1.45 1.45 0v2.538c0 1.813-.362 3.989-1.45 6.165-.725 2.175 0 2.175.363 2.538-.363 0 0 .363 1.45.363Zm-6.89-21.757c.726-1.088 1.088-2.176 1.45-3.264.363-1.45.363-1.813-1.087-1.813h-2.176c-.725 0-1.088.725-.725 1.813.363 1.088.725 1.813 1.088 2.9.363 1.089.363 1.451 1.45.364ZM152.3 205.24c1.088 0 1.813 0 2.538-.363.725-.363 1.45-.363.363-2.538-.726-2.176-1.45-4.352-1.45-6.165v-2.538c0-1.45 1.087-1.45 1.45 0 0 1.813 1.087 5.44 2.175 7.615 1.088 2.176 2.901 1.088 3.264.725.362-.363 1.813-1.45 2.176-2.176.362-.725.725-1.45-.363-2.538-1.45-1.45-3.264-3.989-3.989-5.802-.725-1.813 0-2.538 1.088-.725 1.088 1.813 2.9 3.626 4.351 4.714.726.725 1.088.725 1.813 0 .726-.725 1.814-2.538 1.451-4.714-.363-1.813-1.088-2.176-2.176-2.176s-3.263 0-5.076-1.45c-2.176-1.813-3.264-3.989-4.352-9.066-.362-2.538-1.813-3.263-2.9-3.263-1.451 0-2.539.725-2.902 3.263-1.087 5.077-2.9 7.615-5.076 9.428-1.45 1.45-3.626 1.45-4.352 1.45-.725 0-1.45 0-1.813 1.814-.362 1.813.726 3.626 1.45 4.714.726.725 1.089.725 1.814 0 1.45-1.088 2.9-2.9 4.351-4.714 1.45-1.813 2.176-1.088 1.088.725-.725 1.813-2.9 4.352-3.989 5.802-1.088 1.088-.725 1.45-.362 2.538.362.726 1.813 1.813 2.175 2.176.363.363 2.176 1.45 3.264-.725 1.088-2.176 1.813-6.165 2.176-7.615 0-1.45 1.087-1.45 1.45 0v2.538c0 1.813-.363 3.989-1.45 6.165-.726 2.175 0 2.175.362 2.538-.362 0 0 .363 1.45.363Zm-84.852.725c1.087 0 1.813 0 2.538-.363.725-.362 1.45-.362.362-2.538-.725-2.176-1.45-4.351-1.45-6.165v-2.538c0-1.45 1.088-1.45 1.45 0 0 1.45 1.088 5.44 2.176 7.615 1.088 2.176 2.901 1.088 3.264.725.362-.362 1.813-1.45 2.175-2.175.363-.726.726-1.45-.362-2.539-1.45-1.45-3.264-3.988-3.989-5.802-.725-1.813 0-2.538 1.088-.725 1.088 1.813 2.9 3.626 4.351 4.714.725.725 1.088.725 1.813 0 .726-.725 1.813-2.538 1.45-4.714-.362-1.813-1.087-2.175-2.175-2.175-1.088 0-3.263 0-5.077-1.45-2.175-1.814-3.263-3.99-4.35-9.066-.364-2.539-1.814-3.264-2.902-3.264-1.45 0-2.538.725-2.9 3.264-1.089 5.076-2.902 7.615-5.077 9.428-1.45 1.45-3.627 1.45-4.352 1.45-.725 0-1.45 0-1.813 1.813-.362 1.813.725 3.626 1.45 4.714.726.725 1.088.725 1.814 0 1.45-1.088 2.9-2.9 4.351-4.714 1.45-1.813 2.176-1.088 1.088.725-.725 1.814-2.901 4.352-3.989 5.802-1.088 1.088-.725 1.813-.362 2.539.362.725 1.813 1.813 2.175 2.175.363.363 2.176 1.45 3.264-.725 1.088-2.176 1.813-6.164 2.175-7.615 0-1.45 1.088-1.45 1.45 0v2.538c0 1.814-.362 3.99-1.45 6.165-.725 2.176 0 2.176.363 2.538-.363 0 0 .363 1.45.363Zm77.6-22.482c.725-1.088 1.087-1.813 1.45-3.264.362-1.45.362-1.813-1.088-1.813h-2.176c-.725 0-1.088.725-.725 1.813.363 1.088.725 1.813 1.088 2.901.725 1.088.725 1.45 1.45.363Zm13.416 0c.725 1.088 1.088.725 1.45-.363.363-1.088.726-1.813 1.088-2.9.363-1.089 0-1.814-.725-1.814h-2.175c-1.45 0-1.45.363-1.088 1.813.362 1.45 1.088 2.176 1.45 3.264Z"/>
  <path d="M219.02 77.6H0V3.989h219.02v73.61ZM43.877 27.196c0-3.989-2.901-7.252-6.89-7.252H19.58v6.89h-2.9c-1.089 0-2.176 1.087-2.176 2.175 0 1.45.725 2.539 2.175 2.539h2.901V47.14h-2.9c-1.089 0-2.176 1.088-2.176 2.176s1.087 2.175 2.175 2.175h2.901v7.253h21.032c.363 1.45 1.813 2.175 3.264 2.175 1.45 0 2.538-1.087 3.263-2.175h21.032V51.49h2.9c1.089 0 2.176-1.087 2.176-2.175 0-1.088-1.087-2.176-2.175-2.176h-2.901V31.548h2.9c1.089 0 2.176-1.088 2.176-2.176s-1.087-2.176-2.175-2.176h-2.901v-6.89H50.766c-3.626 0-6.89 2.901-6.89 6.89Zm64.183 34.086c1.45 0 2.9-.725 3.263-2.176h18.856v-7.252h2.901c1.088 0 2.176-1.088 2.176-2.176 0-1.087-1.088-2.175-2.176-2.175h-2.9V31.548h2.9c1.088 0 2.176-1.088 2.176-2.176s-1.088-2.176-2.176-2.176h-2.9v-7.252h-15.23c-3.99 0-6.89 3.263-6.89 6.89 0-3.99-3.264-6.89-6.89-6.89H83.764v6.89h-2.9c-1.089 0-2.176 1.087-2.176 2.175 0 1.088 1.087 2.176 2.175 2.176h2.901V47.14h-2.9c-1.089 0-2.176 1.088-2.176 2.176s1.087 2.175 2.175 2.175h2.901v7.253h21.032c.363 1.45 1.813 2.538 3.264 2.538Zm64.183-35.899v-.362h-.363c-.725-2.901-3.626-5.077-6.89-5.077h-19.218v7.252h-2.901c-1.088 0-2.176 1.088-2.176 2.176s1.088 2.176 2.176 2.176h2.9V47.14h-2.9c-1.088 0-2.176 1.088-2.176 2.176s1.088 2.175 2.176 2.175h2.9v7.253h23.208c.363 1.45 1.813 2.175 3.264 2.175 1.45 0 2.538-1.087 3.263-2.175h24.295V51.49h2.901c1.088 0 2.176-1.087 2.176-2.175 0-1.088-1.088-2.176-2.176-2.176h-2.9V31.548h2.9c1.088 0 2.176-1.088 2.176-2.176s-1.088-2.176-2.176-2.176h-2.9v-6.89h-20.67c-3.263 0-6.164 2.176-6.89 5.077Z"/>
  <path d="M12.6 17c-.4 0-.8-.2-1-.6H5.7v-2h-.6c-.4 0-.8-.3-.8-.8s.3-.8.8-.8h.6v-4h-.6c-.4 0-.8-.3-.8-.8 0-.4.3-.8.8-.8h.6V5.4h5c.9 0 1.6.5 1.9 1.3.3-.8 1.1-1.3 1.9-1.3h5v1.9h.6c.4 0 .8.3.8.8 0 .4-.3.8-.8.8h-.6v4h.6c.4 0 .8.3.8.8s-.3.8-.8.8h-.6v2h-5.9c-.2.3-.6.5-1 .5ZM6 16.1h5.8v.1c.1.3.5.5.8.5.3 0 .6-.2.8-.5v-.1h5.8v-2h.9c.3 0 .5-.2.5-.5s-.2-.5-.5-.5h-.9V8.5h.9c.3 0 .5-.2.5-.5s-.2-.5-.5-.5h-.9V5.7h-4.7c-1 0-1.8.8-1.8 1.8h-.3c0-1-.8-1.8-1.8-1.8H6v1.9h-.9c-.3 0-.5.2-.5.4 0 .3.2.5.5.5H6v4.6h-.9c-.3 0-.5.2-.5.5s.2.5.5.5H6v2Z" style="fill-rule:nonzero" transform="translate(-1.813) scale(3.62616)"/>
  <path d="M12.5 7.5h.3v7.3h-.3V7.5Zm2.2 2.2c0 .2.1.2.3.2.2 0 .2 0 .3-.1.1-.1.4-.5.4 0v.7c0 .5-.4.2-.4 0-.1-.2-.1-.2-.3-.2-.2 0-.3 0-.3.2v1.6c0 .1.1.2.2.2h.4c.6 0 .7-.3.8-.7.1-.6.4-.5.4 0v.9c0 .3-.3.2-.4.1h-2.2c-.2 0-.2-.1-.1-.2s.1-.1.1-.5V8.5c0-.4 0-.4-.1-.5-.1-.1-.1-.2.1-.2H16c.1 0 .4-.1.4.1v.9c0 .3-.3.4-.4 0-.1-.4-.1-.8-.7-.8h-.4c-.2 0-.2.1-.2.2v1.5Z" style="fill-rule:nonzero" transform="translate(-1.813) scale(3.62616)"/>
  <path d="M6.7 14.8h1.5v.3H6.7z" style="fill-rule:nonzero" transform="rotate(-41.634 26.17 56.683) scale(3.62616)"/>
  <path d="m13.7 16.4-.3-.1c.1-.1.1-.2.1-.4 0-.5-.4-.9-.9-.9s-.9.4-.9.9c0 .1 0 .3.1.4l-.3.1c-.1-.2-.1-.3-.1-.5 0-.6.5-1.2 1.2-1.2.6 0 1.2.5 1.2 1.2 0 .1 0 .3-.1.5Z" style="fill-rule:nonzero" transform="translate(-1.813) scale(3.62616)"/>
  <path d="M11.7 15.6H6.8V6.4l.9-.9h.5v8.9h3.4c.5 0 .9.2 1 .4l-.3.1c-.1-.1-.3-.3-.8-.3H7.9V5.8h-.1l-.7.7v8.8h4.6v.3Zm6.8 0h-4.9v-.3h4.6V6.5l-.7-.7h-.1v8.9h-3.7c-.5 0-.7.1-.8.3l-.3-.1c.1-.3.5-.4 1-.4H17v-9h.5l.9.9v9.2h.1Z" style="fill-rule:nonzero" transform="translate(-1.813) scale(3.62616)"/>
  <path d="M17.6 14.2h.3v1.5h-.3z" style="fill-rule:nonzero" transform="rotate(-48.32 63.57 56.32) scale(3.62632)"/>
  <path d="M10.5 12.2c-.1.3-.2.5-.4.5s-.3-.2-.3-.5L9 8.5c-.1-.3-.2-.3-.3-.4-.1-.1-.1-.3.1-.3h.8c.2 0 .2.1.1.2 0 .2-.1.2 0 .5l.5 2.3c.1.4.3.3.3 0l.7-2.3c.1-.4-.1-.4-.1-.5-.1-.1 0-.2.1-.2h.6c.1 0 .1.2 0 .3-.1.1-.1.1-.3.4l-1 3.7ZM30.3 17c-.4 0-.8-.2-1-.6h-5.9v-2h-.6c-.4 0-.8-.3-.8-.8s.3-.8.8-.8h.6v-4h-.6c-.5 0-.8-.3-.8-.8 0-.4.3-.8.8-.8h.6V5.4h5c.9 0 1.6.5 1.9 1.3.3-.8 1.1-1.3 1.9-1.3h4.3v1.9h.6c.5 0 .9.3.9.7 0 .4-.3.8-.8.8h-.6v4h.6c.4 0 .8.3.8.8s-.3.8-.8.8h-.6v2h-5.3c-.2.4-.6.6-1 .6Zm-6.6-.9h5.8v.1c.1.3.5.5.8.5.3 0 .6-.2.8-.5v-.1h5.2v-2h.9c.3 0 .5-.2.5-.5s-.2-.5-.5-.5h-.9V8.5h.9c.3 0 .5-.2.5-.5s-.2-.5-.5-.5h-.9V5.7h-4c-1 0-1.8.8-1.8 1.8h-.3c0-1-.8-1.8-1.8-1.8h-4.7v1.9h-.9c-.3 0-.5.2-.5.5s.2.5.5.5h.9v4.6h-.9c-.3 0-.5.2-.5.5s.2.5.5.5h.9v1.9Z" style="fill-rule:nonzero" transform="translate(-1.813) scale(3.62616)"/>
  <path d="M29.2 16.4c-.1-.2-.1-.3-.1-.5 0-.6.5-1.2 1.2-1.2.6 0 1.2.5 1.2 1.2 0 .2 0 .3-.1.5l-.3-.1c.1-.1.1-.2.1-.4 0-.5-.4-.9-.9-.9s-.9.4-.9.9c0 .1 0 .3.1.4l-.3.1Z" style="fill-rule:nonzero" transform="translate(-1.813) scale(3.62616)"/>
  <path d="M29.3 15.6h-4.9V6.4l.9-.9h.5v8.9h3.4c.5 0 .9.2 1 .4l-.2.1c-.1-.1-.3-.3-.8-.3h-3.7V5.8h-.1l-.7.7v8.8h4.6v.3Z" style="fill-rule:nonzero" transform="translate(-1.813) scale(3.62616)"/>
  <path d="M24.4 14.8h1.5v.3h-1.5z" style="fill-rule:nonzero" transform="rotate(-41.634 90.147 56.683) scale(3.62616)"/>
  <path d="M30.1 7.5h.3v7.3h-.3z" style="fill-rule:nonzero" transform="translate(-1.813) scale(3.62616)"/>
  <path d="M35.5 15.6h-4.3v-.3h4V6.5l-.7-.7h-.1v8.9h-3.1c-.5 0-.7.1-.8.3l-.3-.1c.1-.3.5-.4 1-.4H34v-9h.5l.9.9v9.2h.1Z" style="fill-rule:nonzero" transform="translate(-1.813) scale(3.62616)"/>
  <path d="M34.7 14.2h.3v1.5h-.3z" style="fill-rule:nonzero" transform="rotate(-48.32 125.3 56.324) scale(3.62632)"/>
  <path d="M27 12.6h-.5c-.2 0-.2-.1-.1-.2s.2-.1.2-.5V8.4c0-.2 0-.2-.1-.3-.1-.1 0-.2.2-.2h1c1.2 0 1.6.4 1.6 1.1 0 .5-.3.9-.7 1.1-.1 0-.1.1-.1.2s0 .1.1.2.8 1.6.9 1.7l.2.2s0 .2-.2.2h-.7l-.1-.1c-.1-.1-1-2-1.1-2.2h-.3v1.6c0 .4.1.4.2.5.1.1.1.3-.1.3 0-.1-.2-.1-.4-.1Zm.4-4.1v1.2c0 .1.1.2.3.2.3 0 .8-.1.8-.9s-.4-.9-.6-.9c-.2 0-.5 0-.5.4Zm5.5 3.4c0 .4 0 .4.1.5.1.1.1.2-.1.2h-.8c-.2 0-.2-.1-.1-.2s.1-.1.1-.5V8.6c0-.4 0-.4-.1-.5-.1-.1-.1-.2.1-.2h.8c.2 0 .2.1.1.2s-.1.1-.1.5v3.3Zm15 5.1c-.4 0-.8-.2-1-.6h-6.5v-2h-.6c-.4 0-.8-.3-.8-.8s.3-.8.8-.8h.6v-4h-.6c-.4 0-.8-.3-.8-.8 0-.4.3-.8.8-.8h.6V5.4H46c.9 0 1.6.5 1.9 1.3.3-.8 1.1-1.3 1.9-1.3h5.8v1.9h.6c.4 0 .8.3.8.8 0 .4-.3.8-.8.8h-.6v4h.6c.4 0 .8.3.8.8s-.3.8-.8.8h-.6v2h-6.7c-.2.3-.6.5-1 .5Zm-7.2-.9H47v.1c.1.3.5.5.8.5.3 0 .6-.2.8-.5v-.1h6.6v-2h.9c.3 0 .5-.2.5-.5s-.2-.5-.5-.5h-.9V8.5h.9c.3 0 .5-.2.5-.5s-.2-.5-.5-.5h-.9V5.7h-5.5c-.8 0-1.5.5-1.7 1.3v.1h-.4V7c-.2-.8-.9-1.3-1.7-1.3h-5.2v1.9h-.9c-.3 0-.5.2-.5.5s.2.5.5.5h.9v4.6h-.9c-.3 0-.5.2-.5.5s.2.5.5.5h.9v1.9Z" style="fill-rule:nonzero" transform="translate(-1.813) scale(3.62616)"/>
  <path d="m41.7 15.6-.2-.3 1.1-.9.2.2-1.1 1Zm7.3.8-.3-.1c.1-.1.1-.2.1-.4 0-.5-.4-.9-.9-.9s-.9.4-.9.9c0 .1 0 .3.1.4l-.3.1c-.1-.2-.1-.3-.1-.5 0-.6.5-1.2 1.2-1.2.6 0 1.2.5 1.2 1.2 0 .1-.1.3-.1.5Z" style="fill-rule:nonzero" transform="translate(-1.813) scale(3.62616)"/>
  <path d="M46.9 15.6h-5.5V6.4l.9-.9h.5v8.9h4c.5 0 .9.2 1 .4l-.3.1c-.1-.1-.3-.3-.8-.3h-4.3V5.8h-.1l-.7.7v8.8h5.2v.3h.1Zm7.7 0h-5.8v-.3h5.5V6.5l-.7-.7h-.1v8.9H49c-.5 0-.7.1-.8.3l-.3-.1c.1-.3.5-.4 1-.4h4.3v-9h.5l.9.9v9.2Z" style="fill-rule:nonzero" transform="translate(-1.813) scale(3.62616)"/>
  <path d="M53.8 14.2h.3v1.5h-.3z" style="fill-rule:nonzero" transform="rotate(-48.402 194.617 56.323) scale(3.62616)"/>
  <path d="m48.4 11.2.2.6c.1.4 0 .4-.1.5-.1.1 0 .2.1.2h.9c.2 0 .1-.2.1-.3-.1-.1-.1-.2-.2-.4l-1-3.6c-.1-.3-.2-.5-.3-.5-.2.1-.5.1-.5.3v.4l-1 3.5c-.1.4-.2.4-.3.4-.1.1-.1.3 0 .3h.6c.1 0 .2-.1.1-.2s-.2-.1-.1-.5l.2-.7c.1-.1.4-.1.6-.1.2 0 .6-.1.7.1Zm-.8-1.7c.2-.6.3-.6.4 0l.2 1c.1.2.1.3-.4.3-.6 0-.6 0-.5-.3l.3-1Zm-3.4-1.6h1.6c.6 0 .6 0 .6.2v.7c0 .1 0 .3-.1.3s-.2-.1-.2-.3c-.2-.6-.4-.7-.6-.7-.2 0-.2.1-.2.4v3.3c0 .4 0 .4.2.5.1.1.1.3-.1.2h-.8c-.2 0-.2-.2-.1-.2.1-.1.2-.1.2-.5V8.5c0-.3 0-.4-.2-.4-.1 0-.4.1-.6.7-.1.2-.1.3-.2.3s-.1-.2-.1-.3v-.7c0-.2 0-.2.6-.2Zm5.8 3.5c0-.4.3-.4.4.1.1.4.3.9.9.9.5 0 .7-.6.7-.9 0-.5-.2-.7-1-1.2-.7-.6-.9-.9-.9-1.4 0-.4.4-1.1 1.1-1.1.3 0 .5 0 .7.2h.3c.1-.1.2 0 .2.2v.9c0 .2-.2.3-.4 0-.1-.4-.2-1-.8-1-.4 0-.6.5-.6.7 0 .6.6.8 1.2 1.2.6.5.8.7.8 1.3 0 .7-.7 1.4-1.4 1.4-.3 0-.6-.2-.8-.2-.2 0-.2.1-.3.1-.1 0-.2-.1-.2-.2.1-.2.1-.7.1-1Zm35.3 29.1c0 3.3-2.2 5.5-7.2 5.5h-9.3V25.7h9.1c4.3 0 6.6 2 6.6 5.3 0 2.4-1.4 4-3.6 4.6 2.8.6 4.4 2.5 4.4 4.9Zm-11-6.4h2.2c1.5 0 2.4-.6 2.4-1.9 0-1.4-.9-1.9-2.4-1.9h-2.2v3.8Zm0 7.3h2.9c1.4 0 2.2-.6 2.2-1.8 0-1.2-.8-1.8-2.2-1.8h-2.9v3.6Zm22 1.6c-.4 2.1-2.1 3.4-4.8 3.4-2.9 0-4.9-1.8-4.9-5.6V30h5.6v9.6c0 1.6.4 2.6 1.7 2.6 1.5 0 2.3-1.3 2.3-3.9V30h5.6v16h-5l-.5-3Zm11.3-2.5c.3 1.3 1.3 2 2.5 2 1 0 1.7-.3 1.7-1s-.6-1-1.7-1.2l-2.1-.4c-2.9-.6-4.4-2.1-4.4-4.7 0-3.9 3.3-5.4 6.9-5.4 3.8 0 6.2 1.6 6.7 4.6l-5.2.6c-.2-.9-.7-1.4-1.8-1.4-.8 0-1.3.4-1.3 1s.4.9 1.3 1.1l2.1.4c3.5.6 5 2.5 5 5.2 0 3.8-3.3 5.2-7.2 5.2-3.6 0-6-1.3-6.9-4.1l4.4-1.9Zm14.1-17.4c1.7 0 3.1 1.1 3.1 2.9 0 1.8-1.4 2.9-3.1 2.9-1.7 0-3.1-1.1-3.1-2.9 0-1.7 1.4-2.9 3.1-2.9Zm2.8 6.9v16h-5.6V30h5.6Zm7.9 3.1c.8-2.4 2.7-3.5 5.1-3.5 2.5 0 4.7 1.5 4.7 5.1V46h-5.6v-9.1c0-1.6-.5-2.6-1.9-2.6-1.2 0-2.2.7-2.2 3.2V46h-5.6V30h5l.5 3.1Zm21.7 7.1 4.6 1.5c-.9 3.4-3.7 4.7-6.9 4.7-4.7 0-8.2-3-8.2-8.2 0-5.4 3-8.5 8.1-8.5 4.7 0 7.2 3 7.2 7.5 0 .6 0 1.3-.1 2h-9.7c.1 2 1.1 3 2.7 3 1.2 0 2-.5 2.3-2Zm-.5-3.9c0-1.4-.5-2.6-2-2.6-1.3 0-2.2 1.1-2.4 2.6h4.4Zm10.4 4.2c.3 1.3 1.3 2 2.5 2 1 0 1.7-.3 1.7-1s-.6-1-1.7-1.2l-2.1-.4c-2.9-.6-4.4-2.1-4.4-4.7 0-3.9 3.3-5.4 6.9-5.4 3.8 0 6.2 1.6 6.7 4.6l-5.1.8c-.2-.9-.7-1.4-1.8-1.4-.8 0-1.3.4-1.3 1s.5.9 1.3 1.1l2.1.4c3.5.6 5 2.5 5 5.2 0 3.8-3.3 5.2-7.2 5.2-3.6 0-6-1.3-6.9-4.1l4.3-2.1Zm14.8 0c.3 1.3 1.3 2 2.5 2 1 0 1.7-.3 1.7-1s-.6-1-1.7-1.2l-2.1-.4c-2.9-.6-4.4-2.1-4.4-4.7 0-3.9 3.3-5.4 6.9-5.4 3.8 0 6.2 1.6 6.7 4.6l-5.1.8c-.2-.9-.7-1.4-1.8-1.4-.8 0-1.3.4-1.3 1s.5.9 1.3 1.1l2.1.4c3.5.6 5 2.5 5 5.2 0 3.8-3.3 5.2-7.2 5.2-3.6 0-6-1.3-6.9-4.1l4.3-2.1ZM80.2 70.7c-.7-.6-.9-1.3-1.1-2.3l-.6-2.5c-.3-1.5-.9-1.7-2.2-1.7h-1.8v6.5h-5.6V50.3h8.7c4.6 0 7.7 1.8 7.7 6.4 0 3.2-2.1 4.8-4.3 5.2 1.9.4 2.8 1.2 3.3 3l1 3.5c.2.9.5 1.6 1.2 2.3h-6.3Zm-5.8-11.1h2.2c2 0 2.8-.8 2.8-2.2 0-1.5-.9-2.2-2.8-2.2h-2.2v4.4Z" style="fill-rule:nonzero" transform="translate(-1.813) scale(3.62616)"/>
  <path d="m96.5 64.9 4.6 1.5c-.9 3.4-3.7 4.7-6.9 4.7-4.7 0-8.2-3-8.2-8.2 0-5.4 3-8.5 8.1-8.5 4.7 0 7.2 3 7.2 7.5 0 .6 0 1.3-.1 2h-9.7c.1 2 1.1 3 2.7 3 1.1-.1 1.9-.6 2.3-2Zm-.6-3.9c0-1.4-.5-2.6-2-2.6-1.3 0-2.2 1.1-2.4 2.6h4.4Zm4.9-6.3h5.9l1.8 6.4c.7 2.3 1 3.9 1 3.9h.1s.3-1.6 1.1-3.9l2.1-6.4h5.4l-5.8 16h-6l-5.6-16Zm21.3-6.9c1.7 0 3.1 1.1 3.1 2.9 0 1.8-1.4 2.9-3.1 2.9-1.7 0-3.1-1.1-3.1-2.9.1-1.8 1.5-2.9 3.1-2.9Zm2.8 6.9v16h-5.6v-16h5.6Zm12.2 10.2 4.6 1.5c-.9 3.4-3.7 4.7-6.9 4.7-4.7 0-8.2-3-8.2-8.2 0-5.4 3-8.5 8.1-8.5 4.7 0 7.2 3 7.2 7.5 0 .6 0 1.3-.1 2h-9.7c.1 2 1.1 3 2.7 3 1.2-.1 2-.6 2.3-2Zm-.5-3.9c0-1.4-.5-2.6-2-2.6-1.3 0-2.2 1.1-2.4 2.6h4.4Zm20.2-6.3 1.1 5.6c.6 2.9.9 5 .9 5h.1s.3-2.1 1-4.9l1.3-5.6h5.4l-4.3 16H156l-1-4.7c-.5-2.3-.9-5.1-.9-5.1h-.1s-.4 2.8-.9 5.1l-1 4.7h-6.2l-4.3-16h5.6l1.3 5.6c.7 2.8 1 4.9 1 4.9h.1s.3-2.1.9-5l1.1-5.6h5.2Zm-54.2-38.6c0 .8.2 1.2.8 1.2.3 0 .7-.1 1-.3v3.9c-.8.6-1.5.8-2.8.8-2.1 0-3.3-1-3.9-2.5-.9 1.7-2.3 2.6-4.6 2.6-2.9 0-4.8-1.7-4.8-4.5 0-3.4 2.5-5.2 7.3-5.2h1.6V11c0-1-.3-1.8-1.3-1.8s-1.4.6-1.5 1.9l-5.3-.8c.3-3.3 2.9-5.4 7-5.4 4.6 0 6.6 2 6.6 5.5v5.7h-.1ZM97.2 15h-.7c-2 0-2.7.6-2.7 1.7 0 .8.5 1.3 1.5 1.3.9 0 1.9-.5 1.9-2v-1Zm19-3.3c-.7-.2-1-.4-1.9-.4-1.3 0-2.9.5-2.9 3.4v6.7h-5.6v-16h4.8l.6 3.9c.4-2.7 2.7-3.9 5.4-3.9l-.4 6.3Zm.9-6.3h5.9l1.8 6.4c.7 2.3 1 3.9 1 3.9h.1s.3-1.6 1.1-3.9l2.1-6.4h5.4l-5.8 16h-6l-5.6-16Zm30.8 10.7c0 .8.2 1.2.8 1.2.3 0 .7-.1 1-.3v3.9c-.8.6-1.5.8-2.8.8-2.1 0-3.3-1-3.9-2.5-.9 1.7-2.3 2.6-4.6 2.6-2.9 0-4.8-1.7-4.8-4.5 0-3.4 2.5-5.2 7.3-5.2h1.6V11c0-1-.3-1.8-1.3-1.8s-1.4.6-1.5 1.9l-5.3-.8c.3-3.3 2.9-5.4 7-5.4 4.6 0 6.6 2 6.6 5.5v5.7h-.1Zm-5.4-1.1h-.7c-2 0-2.7.6-2.7 1.7 0 .8.5 1.3 1.5 1.3.9 0 1.9-.5 1.9-2v-1Zm19-3.3c-.7-.2-1-.4-1.9-.4-1.3 0-2.9.5-2.9 3.4v6.7h-5.6v-16h4.8l.6 3.9c.4-2.7 2.7-3.9 5.4-3.9l-.4 6.3ZM173.6 0h5.6v21.4h-5l-.5-2.8c-.6 2.1-2.5 3.2-4.9 3.2-3.7 0-6.4-2.9-6.4-8.1 0-5.4 2.6-8.7 7.1-8.7 2 0 3.7.9 4.2 2.5V0h-.1Zm0 12.2c0-2-1-3.1-2.6-3.1s-3 1.2-3 4.4c0 2.6 1.1 4 2.9 4 1.4 0 2.7-1.1 2.7-3.2v-2.1ZM68.7 21.4V1h5.7v7.6h7V1h5.7v20.4h-5.7v-7.9h-7v7.9h-5.7Z" style="fill-rule:nonzero" transform="translate(-1.813) scale(3.62616)"/>
</svg>
